<?xml version="1.0" encoding="UTF-8" standalone="no"?>
<svg width="20px" height="20px" viewBox="0 0 20 20" version="1.1" xmlns="http://www.w3.org/2000/svg" xmlns:xlink="http://www.w3.org/1999/xlink">
    <!-- Generator: Sketch 3.8.3 (29802) - http://www.bohemiancoding.com/sketch -->
    <title>地点@1x</title>
    <desc>Created with Sketch.</desc>
    <defs></defs>
    <g id="一期" stroke="none" stroke-width="1" fill="none" fill-rule="evenodd">
        <g id="地点" fill="#C2CAD3">
            <g id="Group" transform="translate(2.000000, 0.000000)">
                <path d="M7.99811431,0.0168494106 C3.59244518,0.0168494106 0.00801593962,3.52936301 0.00801593962,7.84648882 C0.00801593962,13.7739447 7.13288382,19.5593038 7.43585453,19.802324 C7.59960413,19.9337052 7.79875625,19.9990843 7.99811431,19.9990843 C8.19726644,19.9990843 8.3966245,19.9337052 8.56018874,19.802324 C8.86373611,19.5593039 15.9882127,13.7739649 15.9882127,7.84648882 C15.9882127,3.52936301 12.4039894,0.0168494106 7.99811431,0.0168494106 L7.99811431,0.0168494106 Z M7.99832026,9.78222627 C6.36028893,9.78222627 5.03216877,8.48984481 5.03216877,6.8951156 C5.03216877,5.30056731 6.36028893,4.00778377 7.99832026,4.00778377 C9.63637219,4.00778377 10.964307,5.30054719 10.964307,6.8951156 C10.964307,8.48984483 9.63637219,9.78222627 7.99832026,9.78222627 L7.99832026,9.78222627 Z" id="Shape"></path>
            </g>
        </g>
    </g>
</svg>