<?xml version="1.0" encoding="UTF-8" standalone="no"?>
<svg width="19px" height="20px" viewBox="0 0 19 20" version="1.1" xmlns="http://www.w3.org/2000/svg" xmlns:xlink="http://www.w3.org/1999/xlink">
    <!-- Generator: Sketch 3.8.3 (29802) - http://www.bohemiancoding.com/sketch -->
    <title>Group Copy 2@3x</title>
    <desc>Created with Sketch.</desc>
    <defs></defs>
    <g id="Page-1" stroke="none" stroke-width="1" fill="none" fill-rule="evenodd">
        <g id="项目信息" transform="translate(-835.000000, -177.000000)" fill="#C2CAD3">
            <g id="Group-25" transform="translate(293.000000, 108.000000)">
                <g id="Group-26" transform="translate(43.000000, 67.000000)">
                    <g id="Group-Copy-2" transform="translate(499.000000, 2.000000)">
                        <path d="M12.7238075,0.0203448729 L14.0614597,0.0203448729 L14.0614597,4.67475895 L12.7238075,4.67475895 L12.7238075,0.0203448729 L12.7238075,0.0203448729 Z M10.717278,9.99409806 L12.7238075,9.99409806 L12.7238075,14.6485936 L10.717278,14.6485936 L10.717278,9.99409806 L10.717278,9.99409806 Z M16.0679483,1.35015419 L14.7302551,1.35015419 L14.7302551,5.33968398 L12.0550121,5.33968398 L12.0550121,1.35015419 L6.70430084,1.35015419 L6.70430084,5.33968398 L4.02899642,5.33968398 L4.02899642,1.35015419 L2.69134421,1.35015419 C1.20470434,1.35015419 0.00952554065,2.65334615 0.00952554065,4.11145647 L0.00952554065,17.3166434 C0.00954602568,18.7743872 1.35371248,19.9782986 2.84029089,19.9782986 L15.9320915,19.9782986 C17.4186699,19.9782986 18.7497874,18.7743872 18.7497874,17.3166638 L18.7497874,4.11147683 C18.7497669,2.65334615 17.5545267,1.35015419 16.0679483,1.35015419 L16.0679483,1.35015419 Z M8.04197354,15.9783622 L6.70428036,15.9783622 L6.70428036,9.99409806 L4.02899642,9.99409806 L4.02899642,8.66428874 L8.04197354,8.66428874 L8.04197354,15.9783622 L8.04197354,15.9783622 L8.04197354,15.9783622 Z M14.0614597,15.9783622 L9.37964624,15.9783622 L9.37964624,8.66428874 L14.0614597,8.66428874 L14.0614597,15.9783622 L14.0614597,15.9783622 Z M6.03550547,0.0203448729 L4.70045485,0.01026408 L4.69785325,4.67475895 L6.03550547,4.67475895 L6.03550547,0.0203448729 Z" id="Shape"></path>
                    </g>
                </g>
            </g>
        </g>
    </g>
</svg>