<?xml version="1.0" encoding="UTF-8" standalone="no"?>
<svg width="20px" height="20px" viewBox="0 0 20 20" version="1.1" xmlns="http://www.w3.org/2000/svg" xmlns:xlink="http://www.w3.org/1999/xlink">
    <!-- Generator: Sketch 3.8.3 (29802) - http://www.bohemiancoding.com/sketch -->
    <title>科室@2x</title>
    <desc>Created with Sketch.</desc>
    <defs></defs>
    <g id="其他" stroke="none" stroke-width="1" fill="none" fill-rule="evenodd">
        <g id="科室" fill="#6AAAF3">
            <path d="M9.53116679,8.99321049 C9.53116679,9.13084438 9.47863647,9.26860737 9.37357581,9.37366803 C9.26864427,9.47859957 9.13088127,9.53114834 8.99322895,9.53114834 L2.53793784,9.53114834 C2.40030396,9.53114834 2.26254096,9.47861801 2.15759098,9.37366803 C2.05253033,9.26860737 2,9.13082594 2,8.99321049 L2,2.53793784 C2,2.40030396 2.05253033,2.26267007 2.15759098,2.15759098 C2.26252252,2.05253033 2.40030396,2 2.53793784,2 L8.99321049,2 C9.13084438,2 9.26862581,2.05253033 9.37355736,2.15759098 C9.47861801,2.26265163 9.53114834,2.40028552 9.53114834,2.53793784 L9.53114834,8.99321049 L9.53116679,8.99321049 Z M9.53116679,17.600253 C9.53116679,17.7378869 9.47863647,17.8756683 9.37357581,17.9807289 C9.26864427,18.0856605 9.13088127,18.1381908 8.99322895,18.1381908 L2.53793784,18.1381908 C2.40030396,18.1381908 2.26254096,18.0856605 2.15759098,17.9807289 C2.05253033,17.8756683 2,17.7378869 2,17.600253 L2,11.1449619 C2,11.0073464 2.05253033,10.8696941 2.15759098,10.7646335 C2.26252252,10.6595728 2.40030396,10.6070425 2.53793784,10.6070425 L8.99321049,10.6070425 C9.13084438,10.6070425 9.26862581,10.6595728 9.37355736,10.7646335 C9.47861801,10.8696941 9.53114834,11.0073464 9.53114834,11.1449619 L9.53114834,17.600253 L9.53116679,17.600253 Z M18.1383384,17.600253 C18.1383384,17.7378869 18.0857896,17.8756683 17.9807474,17.9807289 C17.8758159,18.0856605 17.7380344,18.1381908 17.6004005,18.1381908 L11.1451095,18.1381908 C11.007494,18.1381908 10.8696941,18.0856605 10.764781,17.9807289 C10.6597204,17.8756683 10.60719,17.7378869 10.60719,17.600253 L10.60719,11.1449619 C10.60719,11.0073464 10.6597204,10.8696941 10.764781,10.7646335 C10.8696941,10.6595728 11.007494,10.6070425 11.1451095,10.6070425 L17.6004005,10.6070425 C17.7380344,10.6070425 17.8758159,10.6595728 17.9807474,10.7646335 C18.0857896,10.8696941 18.1383384,11.0073464 18.1383384,11.1449619 L18.1383384,17.600253 L18.1383384,17.600253 Z M18.1383384,4.68968924 L15.4486491,4.68968924 L15.4486491,2 L13.2968977,2 L13.2968977,4.68968924 L10.60719,4.68968924 L10.60719,6.84145908 L13.2968977,6.84145908 L13.2968977,9.53114834 L15.4486491,9.53114834 L15.4486491,6.84145908 L18.1383384,6.84145908 L18.1383384,4.68968924 Z" id="Shape"></path>
        </g>
    </g>
</svg>