<?xml version="1.0" encoding="UTF-8" standalone="no"?>
<svg width="20px" height="20px" viewBox="0 0 20 20" version="1.1" xmlns="http://www.w3.org/2000/svg" xmlns:xlink="http://www.w3.org/1999/xlink">
    <!-- Generator: Sketch 3.8.3 (29802) - http://www.bohemiancoding.com/sketch -->
    <title>采暖@3x</title>
    <desc>Created with Sketch.</desc>
    <defs></defs>
    <g id="其他" stroke="none" stroke-width="1" fill="none" fill-rule="evenodd">
        <g id="采暖" fill="#6AAAF3">
            <g id="Group" transform="translate(0.000000, 5.000000)">
                <path d="M19.8982548,5.5335371 L19.1015899,0.784339996 C19.0286075,0.349405575 18.6259755,0.00872003539 18.1849793,0.00872003539 L1.74602094,0.00872003539 C1.30498451,0.00872003539 0.902392761,0.349425714 0.829430433,0.784360135 L0.0327655833,5.53351696 C-0.00914294703,5.78333691 -0.00392703672,6.15914426 0.0448890505,6.40767533 L0.49267193,8.68735036 C0.577757726,9.12051258 0.974811346,9.44718162 1.41627069,9.44718162 L18.5147094,9.44718162 C18.9561889,9.44718162 19.3532425,9.12051258 19.4383082,8.68735036 L19.886091,6.4076552 C19.9349071,6.15910398 19.9401432,5.78335705 19.8982548,5.5335371 L19.8982548,5.5335371 Z M14.0841259,6.80936084 L2.54365245,6.80936084 C2.25911346,6.80936084 2.02844537,6.57869275 2.02844537,6.29415376 C2.02844537,6.00961478 2.25911346,5.77894669 2.54365245,5.77894669 L14.0841259,5.77894669 C14.3686649,5.77894669 14.599333,6.00961478 14.599333,6.29415376 C14.599333,6.57869275 14.3686649,6.80936084 14.0841259,6.80936084 L14.0841259,6.80936084 Z M17.3814069,6.80936084 L16.5570917,6.80936084 C16.2725326,6.80936084 16.0418846,6.57871289 16.0418846,6.29415376 C16.0418846,6.00959464 16.2725326,5.77894669 16.5570917,5.77894669 L17.3814069,5.77894669 C17.665966,5.77894669 17.896614,6.00959464 17.896614,6.29415376 C17.896614,6.57871289 17.665966,6.80936084 17.3814069,6.80936084 L17.3814069,6.80936084 Z" id="Shape"></path>
            </g>
        </g>
    </g>
</svg>