<?xml version="1.0" encoding="UTF-8" standalone="no"?>
<svg width="20px" height="20px" viewBox="0 0 20 20" version="1.1" xmlns="http://www.w3.org/2000/svg" xmlns:xlink="http://www.w3.org/1999/xlink">
    <!-- Generator: Sketch 3.8.3 (29802) - http://www.bohemiancoding.com/sketch -->
    <title>医院@3x</title>
    <desc>Created with Sketch.</desc>
    <defs></defs>
    <g id="其他" stroke="none" stroke-width="1" fill="none" fill-rule="evenodd">
        <g id="医院" fill="#6AAAF3">
            <g id="Group" transform="translate(1.000000, 0.000000)">
                <path d="M17.6394847,16.9705684 L16.2808018,16.9317035 L16.3002342,3.12143949 L17.0785301,3.12143949 L17.0979625,1.69112025 L11.6668663,1.70691711 L11.7190701,1.63648415 C11.9412758,0.169732295 10.8715703,0.0106628643 10.8715703,0.0106628643 L4.5966098,0.0276630349 C3.54510778,0.151503189 3.74910993,1.69112025 3.74910993,1.69112025 L0.595807273,1.69112028 L0.57637485,3.40314578 L1.35830626,3.43834946 L1.39107769,16.9487293 L0.00202998763,16.9487293 L0.0190301582,19.2326418 L17.6552304,19.2484387 L17.6394847,16.9705684 L17.6394847,16.9705684 Z M3.72965194,4.76546431 L5.99169978,4.79216789 L5.99169978,6.77130615 L3.72965194,6.76280605 L3.72965194,4.76546431 L3.72965194,4.76546431 Z M3.81465284,8.82937747 L6.07549737,8.85608105 L6.07549737,10.8352193 L3.81465284,10.8255159 L3.81465284,8.82937747 L3.81465284,8.82937747 Z M6.19447299,14.6453843 L3.9348574,14.6368842 L3.9348574,12.643178 L6.19447299,12.6650427 L6.19447299,14.6453843 L6.19447299,14.6453843 Z M7.82999772,4.76546431 L10.0908422,4.79216789 L10.0908422,6.77130615 L7.82999772,6.76280605 L7.82999772,4.76546431 L7.82999772,4.76546431 Z M7.91376966,8.82937747 L10.1721819,8.85608105 L10.1721819,10.8352193 L7.91376966,10.824287 L7.91376966,8.82937747 L7.91376966,8.82937747 Z M10.2948188,15.8037263 L8.03156759,15.7891584 L8.03156759,12.6431524 L10.2948188,12.684424 L10.2948188,15.8037263 L10.2948188,15.8037263 Z M12.0153444,4.76546431 L14.2761889,4.79216789 L14.2761889,6.77130615 L12.0153444,6.76280605 L12.0153444,4.76546431 L12.0153444,4.76546431 Z M12.1015486,8.82937747 L14.3587319,8.85608105 L14.3587319,10.8352193 L12.1015486,10.824287 L12.1015486,8.82937747 L12.1015486,8.82937747 Z M12.2193209,12.6431524 L14.4813687,12.6650171 L14.4813687,14.6465876 L12.2193209,14.6380875 L12.2193209,12.6431524 L12.2193209,12.6431524 Z" id="Shape"></path>
            </g>
        </g>
    </g>
</svg>