<?xml version="1.0" encoding="UTF-8" standalone="no"?>
<svg width="20px" height="20px" viewBox="0 0 20 20" version="1.1" xmlns="http://www.w3.org/2000/svg" xmlns:xlink="http://www.w3.org/1999/xlink">
    <!-- Generator: Sketch 3.8.3 (29802) - http://www.bohemiancoding.com/sketch -->
    <title>酒店@1x</title>
    <desc>Created with Sketch.</desc>
    <defs></defs>
    <g id="一期" stroke="none" stroke-width="1" fill="none" fill-rule="evenodd">
        <g id="酒店" fill="#C2CAD3">
            <g id="Group" transform="translate(1.000000, 1.000000)">
                <path d="M16.7859525,18.9996531 L11.3954384,18.9996531 C11.2917343,18.9996531 11.1923067,18.9818671 11.0959698,18.9571247 C11.0000216,18.9818671 10.9006134,18.9996531 10.796851,18.9996531 L1.21426134,18.9996531 C0.55249892,18.9996531 0.0162894168,18.4677302 0.0162894168,17.8120953 L0.0162894168,1.18792394 C0.0162894168,0.531903651 0.552479482,0.000346855984 1.21426134,0.000346855984 L10.7968704,0.000346855984 C11.4582635,0.000346855984 11.9944341,0.531884381 11.9944341,1.18792394 L11.9944341,5.34404868 L16.7859525,5.34404868 C17.4473261,5.34404868 17.9835356,5.87560548 17.9835356,6.53162576 L17.9835356,17.8120761 C17.9835356,18.4677302 17.4473261,18.9996531 16.7859525,18.9996531 L16.7859525,18.9996531 Z M4.80738013,3.5626927 L2.41184449,3.5626927 L2.41184449,5.93784686 L4.80738013,5.93784686 L4.80738013,3.5626927 L4.80738013,3.5626927 Z M4.80738013,8.31224949 L2.41184449,8.31224949 L2.41184449,10.6874037 L4.80738013,10.6874037 L4.80738013,8.31224949 L4.80738013,8.31224949 Z M4.80738013,13.0621531 L2.41184449,13.0621531 L2.41184449,15.4369219 L4.80738013,15.4369219 L4.80738013,13.0621531 L4.80738013,13.0621531 Z M8.99992225,3.5626927 L6.60436717,3.5626927 L6.60436717,5.93784686 L8.99992225,5.93784686 L8.99992225,3.5626927 L8.99992225,3.5626927 Z M8.99992225,8.31224949 L6.60436717,8.31224949 L6.60436717,10.6874037 L8.99992225,10.6874037 L8.99992225,8.31224949 L8.99992225,8.31224949 Z M8.99992225,13.0621531 L6.60436717,13.0621531 L6.60436717,15.4369219 L8.99992225,15.4369219 L8.99992225,13.0621531 L8.99992225,13.0621531 Z M15.5879806,8.31224949 L13.1924255,8.31224949 L13.1924255,10.6874037 L15.5879611,10.6874037 L15.5879611,8.31224949 L15.5879806,8.31224949 Z M15.5879806,13.0621531 L13.1924255,13.0621531 L13.1924255,15.4369219 L15.5879611,15.4369219 L15.5879611,13.0621531 L15.5879806,13.0621531 Z" id="Shape"></path>
            </g>
        </g>
    </g>
</svg>