<?xml version="1.0" encoding="UTF-8" standalone="no"?>
<svg width="20px" height="20px" viewBox="0 0 20 20" version="1.1" xmlns="http://www.w3.org/2000/svg" xmlns:xlink="http://www.w3.org/1999/xlink">
    <!-- Generator: Sketch 3.8.3 (29802) - http://www.bohemiancoding.com/sketch -->
    <title>说明@3x</title>
    <desc>Created with Sketch.</desc>
    <defs></defs>
    <g id="其他" stroke="none" stroke-width="1" fill="none" fill-rule="evenodd">
        <g id="说明" fill="#539CEF">
            <path d="M3.77495148,4 L4.27232174,4 C4.41517415,4.02787364 4.5571555,4.0714262 4.70087895,4.08100777 C6.23654229,4.18292076 7.63980583,4.68116207 8.95944847,5.45726872 C9.25560587,5.63060792 9.35838992,5.82746549 9.35751886,6.16804653 C9.34532414,9.53204642 9.35055046,12.8969174 9.34880835,16.2609172 C9.34880835,16.4133512 9.32964523,16.5657852 9.31832156,16.7382533 C8.74604089,16.4856485 8.24605748,16.2278173 7.72081359,16.0405413 C5.85589289,15.3741871 3.93348279,15.3088582 1.98581223,15.5283631 C1.17573458,15.6198235 1.00065329,15.4525817 1.00065329,14.6503435 C0.999782238,11.5345932 0.999782238,8.41884293 1.00065329,5.30309265 C1.00065329,4.61060691 1.11388995,4.44684929 1.77850204,4.3179337 C2.43962993,4.18901811 3.10946833,4.10365509 3.77495148,4 L3.77495148,4 Z M15.0176098,4 L15.5149801,4 C16.1499764,4.09668668 16.789328,4.169855 17.418227,4.29441532 C18.2814388,4.46601241 18.3293466,4.54353597 18.3293466,5.41371616 C18.3302177,8.36396671 18.3302177,11.3133462 18.3293466,14.2635967 C18.3293466,15.5910788 18.2561783,15.6154683 16.9374068,15.4900369 C14.6247657,15.2696609 12.3722272,15.4865527 10.2878016,16.6345982 C10.209407,16.6781508 10.1153335,16.6929586 10.0177757,16.7243165 C9.99774153,16.6415666 9.9768363,16.5954009 9.9768363,16.5492352 C9.97422315,13.0354145 9.96986789,9.52246486 9.98380471,6.00864417 C9.98467575,5.85185495 10.124044,5.62276846 10.2625411,5.55047121 C10.9802873,5.18027444 11.6936783,4.77088035 12.4575902,4.52698601 C13.2842178,4.26479957 14.1622375,4.16898394 15.0176098,4 L15.0176098,4 Z" id="Shape"></path>
        </g>
    </g>
</svg>