<?xml version="1.0" encoding="UTF-8" standalone="no"?>
<svg width="20px" height="20px" viewBox="0 0 20 20" version="1.1" xmlns="http://www.w3.org/2000/svg" xmlns:xlink="http://www.w3.org/1999/xlink">
    <!-- Generator: Sketch 3.8.3 (29802) - http://www.bohemiancoding.com/sketch -->
    <title>餐饮@3x</title>
    <desc>Created with Sketch.</desc>
    <defs></defs>
    <g id="其他" stroke="none" stroke-width="1" fill="none" fill-rule="evenodd">
        <g id="餐饮" fill="#6AAAF3">
            <path d="M8.54947586,0.0012522642 L8.54947586,6.06346328 L8.54697133,6.06346328 L7.79060375,6.06346328 L7.79060375,0.0012522642 L6.27536406,0.0012522642 L6.27536406,6.06346328 L5.51649195,6.06346328 L5.51649195,0.0012522642 L4.00250453,0.0012522642 L4,6.82483992 C4.00375679,7.65884788 4.67997946,8.33757508 5.51523969,8.33757508 L5.51649195,17.4315177 L5.51649195,18.9455052 C5.51649195,19.3650137 5.85710782,19.703125 6.2741118,19.703125 L7.78935148,19.703125 C8.20885999,19.703125 8.54822359,19.3650137 8.54822359,18.9455052 L8.54822359,12.8845464 C8.54822359,12.8845464 8.54697133,12.8845464 8.54697133,12.8832941 L8.54697133,8.33757508 C9.38473608,8.33757508 10.062211,7.65759561 10.062211,6.82233539 L10.0634633,7.57995523 L10.0634633,0.0012522642 L8.54947586,0.0012522642 L8.54947586,0.0012522642 Z M4,7.15919446 L4,6.82483992 L4,6.82108312 L4,7.15919446 L4,7.15919446 Z M14.6104346,0 C13.3544136,0 12.3375751,1.0180908 12.3375751,2.2741118 L12.3375751,10.6091823 L13.8528148,10.6091823 L13.8528148,11.2290531 L13.8528148,12.8832941 L13.8528148,17.4302655 L13.8528148,18.9442529 C13.8528148,19.3637614 14.1921784,19.7018727 14.6091823,19.7018727 L16.124422,19.7018727 C16.5426783,19.7018727 16.8807896,19.3637614 16.8807896,18.9442529 L16.8807896,17.4302655 L16.8807896,12.8832941 L16.8807896,10.6091823 L16.8807896,2.2741118 C16.8820419,1.0180908 15.8652033,0 14.6104346,0 L14.6104346,0 Z" id="Shape"></path>
        </g>
    </g>
</svg>