<?xml version="1.0" encoding="UTF-8" standalone="no"?>
<svg width="20px" height="20px" viewBox="0 0 20 20" version="1.1" xmlns="http://www.w3.org/2000/svg" xmlns:xlink="http://www.w3.org/1999/xlink">
    <!-- Generator: Sketch 3.8.3 (29802) - http://www.bohemiancoding.com/sketch -->
    <title>网络@3x</title>
    <desc>Created with Sketch.</desc>
    <defs></defs>
    <g id="其他" stroke="none" stroke-width="1" fill="none" fill-rule="evenodd">
        <g id="网络" fill="#6AAAF3">
            <path d="M18.8397257,8.86573636 C18.8397257,9.47661167 18.344525,9.97197903 17.733483,9.97197903 C17.4487968,9.97197903 17.1916125,9.86080472 16.9952657,9.68345921 L16.9392618,9.63145565 C15.5665008,7.1789538 12.9411538,5.27582304 9.93078027,5.27582304 C7.05908297,5.27582304 4.54374348,7.14461811 3.12647944,9.41244059 C3.08931023,9.50211342 3.03730664,9.58311898 2.97930267,9.65895752 C2.95646777,9.69812687 2.93146605,9.73579613 2.90946454,9.77563221 L2.9302993,9.72629548 C2.72961885,9.9311429 2.41543058,10.0938207 2.10557596,10.0938207 C1.49520069,10.0936541 1,9.59828669 1,8.98807809 C1,8.6757233 1.0251684,8.31953215 1.23351604,8.1188517 L1.24301669,8.09701687 L1.23351604,8.1188517 C2.9896367,4.70828404 5.86850116,3 9.93794744,3 C14.1934065,3 16.6159063,4.7626211 18.8185576,8.54304751 C18.9078971,8.74389465 18.8397257,8.86573636 18.8397257,8.86573636 L18.8397257,8.86573636 Z M9.86210888,7.66732068 C12.1691007,7.66732068 14.1192347,8.97457717 15.2628133,10.7730341 C15.4949959,11.0870556 15.7126775,11.2947366 15.7126775,11.6587616 C15.7126775,12.2698036 15.2178102,12.7650043 14.6071016,12.7650043 C14.3900867,12.7650043 14.1892395,12.6996664 14.0187278,12.5921591 L13.9293883,12.5243211 C13.7897121,12.3958122 13.8483828,12.4434822 13.7673772,12.3401417 C13.66237,12.213133 13.6195337,12.0974584 13.5246939,11.9327804 C12.7823095,10.6666934 11.4292166,9.79596696 9.85494172,9.79596696 C8.28166696,9.79596696 6.91840662,10.6523591 6.17552225,11.9172794 C6.05584736,12.1077925 5.99634326,12.2713037 5.84749971,12.5579901 C5.79899638,12.6101603 5.85116663,12.5654906 5.79532947,12.6173275 L5.72865822,12.6759982 C5.5468124,12.8073405 5.3251305,12.8870126 5.0836139,12.8870126 C4.4727386,12.8870126 3.97770459,12.391812 3.97770459,11.78127 C3.97770459,11.450914 4.09487931,11.1850624 4.31806131,10.9505463 C5.53497824,9.00807947 7.47977854,7.66732068 9.86210888,7.66732068 L9.86210888,7.66732068 Z M9.79743777,12.0686231 C10.9703517,12.0686231 11.920917,13.0191884 11.920917,14.1919356 C11.920917,15.3641828 10.9703517,16.3149148 9.79743777,16.3149148 C8.62519057,16.3149148 7.67462525,15.3641828 7.67462525,14.1919356 C7.67445858,13.0191884 8.62519057,12.0686231 9.79743777,12.0686231 L9.79743777,12.0686231 Z" id="Shape"></path>
        </g>
    </g>
</svg>