<?xml version="1.0" encoding="UTF-8" standalone="no"?>
<svg width="20px" height="20px" viewBox="0 0 20 20" version="1.1" xmlns="http://www.w3.org/2000/svg" xmlns:xlink="http://www.w3.org/1999/xlink">
    <!-- Generator: Sketch 3.8.3 (29802) - http://www.bohemiancoding.com/sketch -->
    <title>备注@1x</title>
    <desc>Created with Sketch.</desc>
    <defs></defs>
    <g id="一期" stroke="none" stroke-width="1" fill="none" fill-rule="evenodd">
        <g id="备注" fill="#C2CAD3">
            <g id="Group" transform="translate(1.000000, 1.000000)">
                <path d="M15.6042961,0.0028553018 L2.38157462,0.0028553018 C1.07082304,0.0028553018 0.00825643636,0.965309699 0.00825643636,2.15257897 L0.00825643636,16.832116 C0.00825643636,18.0193852 1.07082304,18.9818396 2.38157462,18.9818396 L15.6042961,18.9818396 C16.9150477,18.9818396 17.9776143,18.0193852 17.9776143,16.832116 L17.9776143,2.15257897 C17.9776143,0.965309699 16.9150477,0.0028553018 15.6042961,0.0028553018 L15.6042961,0.0028553018 Z M3.08974505,4.36892048 L12.0697114,4.36892048 L12.0697114,5.82205573 L3.08974505,5.82205573 L3.08974505,4.36892048 L3.08974505,4.36892048 Z M3.08974505,8.73482267 L15.0345352,8.73482267 L15.0345352,10.1901932 L3.08974505,10.1901933 L3.08974505,8.73482267 L3.08974505,8.73482267 Z M3.08974505,13.0774401 L15.0345352,13.0774401 L15.0345352,14.5328106 L3.08974505,14.5328107 L3.08974505,13.0774401 L3.08974505,13.0774401 Z" id="Shape"></path>
            </g>
        </g>
    </g>
</svg>