<?xml version="1.0" encoding="UTF-8" standalone="no"?>
<svg width="18px" height="18px" viewBox="0 0 18 18" version="1.1" xmlns="http://www.w3.org/2000/svg" xmlns:xlink="http://www.w3.org/1999/xlink">
    <!-- Generator: Sketch 3.8.3 (29802) - http://www.bohemiancoding.com/sketch -->
    <title>Group</title>
    <desc>Created with Sketch.</desc>
    <defs></defs>
    <g id="Page-1" stroke="none" stroke-width="1" fill="none" fill-rule="evenodd">
        <g id="项目信息" transform="translate(-967.000000, -492.000000)" fill="#C2CAD3">
            <g id="Group-28" transform="translate(919.000000, 297.000000)">
                <g id="Group" transform="translate(48.000000, 195.000000)">
                    <path d="M17.1303998,13.8759721 L13.3298897,11.6366512 C13.1324133,11.5356941 12.842657,11.5817151 12.6858329,11.7385393 L11.5675789,12.8566744 C11.4110717,13.0133005 11.1013658,13.1436175 10.8797199,13.1461929 C10.8797199,13.1461929 9.45084866,13.1626361 6.79406947,10.5056191 C4.13715165,7.84882014 4.14983071,6.41537259 4.14983071,6.41537259 C4.1519505,6.19370688 4.28179205,5.8840009 4.4383983,5.72763237 L5.39158662,4.77458272 C5.54843061,4.61750099 5.60102892,4.32469385 5.50851137,4.12299765 L3.41206762,0.179966953 C3.31956987,-0.0214915075 3.11551618,-0.0581221154 2.95890991,0.0982662235 L0.35906765,2.69188784 C0.202203853,2.84801864 0.0498371515,3.1560803 0.0203583183,3.37586395 C0.0203583183,3.37586395 -0.48682409,7.16555721 4.82348528,12.4758666 C10.1338739,17.7861363 13.9234681,17.2789737 13.9234681,17.2789737 C14.1431329,17.2493959 14.4511747,17.0972471 14.607682,16.940621 L17.2044733,14.3439485 C17.3609607,14.1873026 17.3277376,13.9764735 17.1303998,13.8759721 L17.1303998,13.8759721 Z" id="Shape"></path>
                </g>
            </g>
        </g>
    </g>
</svg>