<?xml version="1.0" encoding="UTF-8" standalone="no"?>
<svg width="20px" height="20px" viewBox="0 0 20 20" version="1.1" xmlns="http://www.w3.org/2000/svg" xmlns:xlink="http://www.w3.org/1999/xlink">
    <!-- Generator: Sketch 3.8.3 (29802) - http://www.bohemiancoding.com/sketch -->
    <title>照片@3x</title>
    <desc>Created with Sketch.</desc>
    <defs></defs>
    <g id="其他" stroke="none" stroke-width="1" fill="none" fill-rule="evenodd">
        <g id="照片" fill="#6AAAF3">
            <path d="M6.33921233,4.19032678 C6.33921233,4.9654605 5.70989585,5.58710238 4.93476215,5.58710238 C4.16730303,5.58710238 3.53798655,4.9654605 3.53798655,4.19032678 C3.53798655,3.41519306 4.16730303,2.78587659 4.93476215,2.78587659 C5.70989585,2.78587657 6.33921233,3.41519306 6.33921233,4.19032678 L6.33921233,4.19032678 Z M13.046805,13.8142641 L0.767459113,13.8142641 C0.345356606,13.8142641 0,13.4689075 0,13.046805 L0,0.767459113 C0,0.345356606 0.345356606,0 0.767459113,0 L13.046805,0 C13.4689075,0 13.8142641,0.345356606 13.8142641,0.767459113 L13.8142641,13.046805 C13.8142642,13.4689075 13.4689076,13.8142641 13.046805,13.8142641 L13.046805,13.8142641 Z M9.77742919,5.85571306 L12.2532523,9.16192695 L12.2793459,9.16192695 L12.2793459,1.53491821 L1.53491825,1.53491821 L1.53491825,9.52416765 L2.7935512,7.95010899 C2.7935512,7.95010899 3.10820943,7.52033188 3.491939,7.52033188 C3.87566856,7.52033188 4.16730303,7.91250348 4.16730303,7.91250348 L5.31849171,9.22409112 C5.31849171,9.22409112 5.46430895,9.45509631 5.77129259,9.45509631 C6.06292706,9.45509631 6.18572051,9.22409112 6.18572051,9.22409112 L8.37297901,5.84803845 C8.37297901,5.84803845 8.54182001,5.58710236 9.12508894,5.58710236 C9.63161196,5.58710238 9.77742919,5.85571306 9.77742919,5.85571306 L9.77742919,5.85571306 Z M4.92708756,14.5817233 L14.64312,16.2547842 C15.0575479,16.3238555 15.4573942,16.0406631 15.5333726,15.6254677 L17.6131868,3.52263733 C17.6822581,3.10820941 17.4052054,2.70913067 16.9838703,2.64005934 L14.5817233,2.22563142 L14.5817233,3.78357343 L15.9715918,4.02148576 L14.5817233,12.0874811 L14.5817233,13.046805 C14.5817233,13.8910101 13.8910101,14.5817233 13.0468051,14.5817233 L4.92708756,14.5817233 L4.92708756,14.5817233 Z M19.3476444,6.38525986 L17.9585434,6.05525243 L17.6976073,7.57405404 L18.2494104,7.70452209 L16.1473399,16.6692121 L15.8411237,16.5993733 C15.5563964,16.8687514 15.188016,17.0291504 14.773588,17.0291504 C14.689935,17.0291504 14.5970724,17.0214758 14.5126519,17.0068941 L3.88334313,15.1795739 L3.66078,16.1012923 C3.5686849,16.5149528 3.82194641,16.9301482 4.23637435,17.0291504 L16.1933874,19.8303762 C16.6001408,19.9309133 17.0145687,19.6692098 17.1143384,19.2624565 L19.9155642,7.3046759 C20.0153339,6.89178288 19.7620723,6.48502955 19.3476444,6.38525986 L19.3476444,6.38525986 Z" id="Shape"></path>
        </g>
    </g>
</svg>