<?xml version="1.0" encoding="UTF-8" standalone="no"?>
<svg width="20px" height="20px" viewBox="0 0 20 20" version="1.1" xmlns="http://www.w3.org/2000/svg" xmlns:xlink="http://www.w3.org/1999/xlink">
    <!-- Generator: Sketch 3.8.3 (29802) - http://www.bohemiancoding.com/sketch -->
    <title>特殊需求@1x</title>
    <desc>Created with Sketch.</desc>
    <defs></defs>
    <g id="一期" stroke="none" stroke-width="1" fill="none" fill-rule="evenodd">
        <g id="特殊需求" fill="#C2CAD3">
            <g id="Group" transform="translate(2.000000, 1.000000)">
                <path d="M2.45990114,18 L5.16197629,17.6070786 L4.1134508,10.1514395 C4.62752192,9.56226302 5.5951958,8.65466272 6.71451155,8.61081521 C9.02297126,8.52032447 11.2615025,8.67273209 13.3987589,6.89428693 C13.6710769,6.61506483 13.9554805,6.25454086 14.2556376,5.79816084 C14.7721138,5.01367481 15.4253202,3.77151369 16,1.86882365 C14.6187884,2.28246622 13.519415,2.53862366 12.7130835,2.67530538 C12.2390173,2.75586721 11.8359217,2.82933697 11.4731918,2.86154937 C9.62801546,3.02569488 9.27220025,2.44145199 8.00499059,1.38282138 C7.47757114,0.942043917 6.80462281,0.65067279 6.02893642,0.410919619 C4.69757059,-0.000770063104 2.72203752,-0.240543791 0,0.369436133 L2.45990114,18 L2.45990114,18 Z" id="Shape"></path>
            </g>
        </g>
    </g>
</svg>