<?xml version="1.0" encoding="UTF-8" standalone="no"?>
<svg width="20px" height="20px" viewBox="0 0 20 20" version="1.1" xmlns="http://www.w3.org/2000/svg" xmlns:xlink="http://www.w3.org/1999/xlink">
    <!-- Generator: Sketch 3.8.3 (29802) - http://www.bohemiancoding.com/sketch -->
    <title>套房@3x</title>
    <desc>Created with Sketch.</desc>
    <defs></defs>
    <g id="其他" stroke="none" stroke-width="1" fill="none" fill-rule="evenodd">
        <g id="套房" fill="#6AAAF3">
            <g id="Group" transform="translate(0.000000, 2.000000)">
                <path d="M16.8747189,16.2405976 L16.8747189,13.7435106 L3.12526104,13.7435106 L3.12526104,16.2405976 L0.000419667968,16.2405976 L0.000419667968,11.8706604 L19.9995802,11.8706604 L19.9995802,16.2405976 L16.8747189,16.2405976 L16.8747189,16.2405976 Z M4.34805197,6.38593908 C6.18456682,5.7221891 14.024971,5.72200922 15.6519279,6.38593908 C18.228561,7.43736621 19.9995802,11.2463637 19.9995802,11.2463637 L0.000419667968,11.2463637 C0.000419667968,11.2463637 2.12715775,7.1885749 4.34805197,6.38593908 L4.34805197,6.38593908 Z M17.3290908,5.80161525 C17.4385766,5.648579 17.4996752,5.48552955 17.4996752,5.31576467 C17.4996752,4.96014578 17.2370332,4.63338732 16.7997697,4.37094525 C16.7898364,4.34784092 16.7840404,4.32403705 16.7722883,4.30131246 C16.8367846,4.22634328 16.8747389,4.14819627 16.8747389,4.06719119 C16.8747389,3.55004182 15.4756874,3.13076609 13.7498376,3.13076609 C12.0240277,3.13076609 10.6249762,3.55004182 10.6249762,4.06719119 C10.6249762,4.14819627 10.6628905,4.22634328 10.7273868,4.30131246 C10.6628905,4.42620777 10.6249762,4.55649945 10.6249762,4.69148793 C10.6249762,4.81488426 10.6596128,4.93380363 10.7143356,5.04884564 C10.4985819,4.97951266 10.2582449,4.93674166 9.99999996,4.93674166 C9.74177504,4.93674166 9.50143799,4.97951266 9.28566428,5.04884564 C9.34038717,4.93380365 9.37500371,4.81488428 9.37500371,4.69148793 C9.37500371,4.55649945 9.33708941,4.42622777 9.27259314,4.30131246 C9.33708941,4.22634328 9.37500371,4.14819627 9.37500371,4.06719119 C9.37500371,3.55004182 7.97595227,3.13076609 6.25014236,3.13076609 C4.52429248,3.13076609 3.12524105,3.55004182 3.12524105,4.06719119 C3.12524105,4.14819627 3.16319531,4.22634328 3.2276916,4.30131246 C3.21593957,4.32403705 3.2101435,4.34784092 3.20021023,4.37094525 C2.76292672,4.63338732 2.50030477,4.96014578 2.50030477,5.31576467 C2.50030477,5.48552957 2.56140334,5.64857902 2.6708891,5.80161525 C2.17116791,6.10598889 1.8753285,6.47613793 1.8753285,6.87642652 L0.625375957,6.87642652 L0.625375957,0.589089355 C0.625375957,0.268946406 0.88491998,0.00940238281 1.20506293,0.00940238281 L18.794897,0.00940238281 C19.11504,0.00940238281 19.374584,0.268946406 19.374584,0.589089355 L19.374584,6.87644652 L18.1246315,6.87644652 C18.1246514,6.47613793 17.828812,6.10598889 17.3290908,5.80161525 L17.3290908,5.80161525 Z" id="Shape"></path>
            </g>
        </g>
    </g>
</svg>