<?xml version="1.0" encoding="UTF-8" standalone="no"?>
<svg width="20px" height="20px" viewBox="0 0 20 20" version="1.1" xmlns="http://www.w3.org/2000/svg" xmlns:xlink="http://www.w3.org/1999/xlink">
    <!-- Generator: Sketch 3.8.3 (29802) - http://www.bohemiancoding.com/sketch -->
    <title>时间@3x</title>
    <desc>Created with Sketch.</desc>
    <defs></defs>
    <g id="一期" stroke="none" stroke-width="1" fill="none" fill-rule="evenodd">
        <g id="时间" fill="#C2CAD3">
            <g id="Group" transform="translate(1.000000, 1.000000)">
                <path d="M8.99654776,0.0127427765 C4.03465336,0.0127427765 0.0118994824,4.03414739 0.0118994824,8.99604179 C0.0118994824,13.9579362 4.03465336,17.9800395 8.99654776,17.9800395 C13.9577916,17.9800395 17.979895,13.9579121 17.979895,8.99604179 C17.979895,4.03412329 13.9577916,0.0127427765 8.99654776,0.0127427765 L8.99654776,0.0127427765 Z M13.4895947,9.98758701 L8.71939313,9.98758701 C8.61848696,9.98758701 8.52162861,9.96744433 8.43284179,9.92976113 C8.16915576,9.81808489 7.9834624,9.55644687 7.9834624,9.25170447 L7.9834624,4.48147878 C7.9834624,4.07452913 8.31306993,3.74489751 8.71939313,3.74489751 C9.12708969,3.74489751 9.45672132,4.07452913 9.45672132,4.48147878 L9.45672132,8.51437628 L13.4895947,8.51437628 C13.8966167,8.51437628 14.2262001,8.84400791 14.2262001,9.25098165 C14.2262001,9.65800358 13.8965926,9.98758701 13.4895947,9.98758701 L13.4895947,9.98758701 Z" id="Shape"></path>
            </g>
        </g>
    </g>
</svg>