<?xml version="1.0" encoding="utf-8"?>
<!-- Generated by IcoMoon.io -->
<!DOCTYPE svg PUBLIC "-//W3C//DTD SVG 1.1//EN" "http://www.w3.org/Graphics/SVG/1.1/DTD/svg11.dtd">
<svg version="1.1" xmlns="http://www.w3.org/2000/svg" xmlns:xlink="http://www.w3.org/1999/xlink" width="571" height="500" viewBox="0 0 571 500">
<path fill="#444" d="M161.831 128.627q0-11.44-6.976-18.415t-18.415-6.976q-11.998 0-21.206 7.115t-9.208 18.276q0 10.882 9.208 17.997t21.206 7.115q11.44 0 18.415-6.836t6.976-18.276zM369.141 270.089q0-7.813-7.115-13.951t-18.276-6.138q-7.534 0-13.812 6.278t-6.278 13.812q0 7.813 6.278 14.090t13.812 6.278q11.161 0 18.276-6.138t7.115-14.23zM303.292 128.627q0-11.44-6.836-18.415t-18.276-6.976q-11.998 0-21.206 7.115t-9.208 18.276q0 10.882 9.208 17.997t21.206 7.115q11.44 0 18.276-6.836t6.836-18.276zM480.469 270.089q0-7.813-7.254-13.951t-18.136-6.138q-7.534 0-13.812 6.278t-6.278 13.812q0 7.813 6.278 14.090t13.812 6.278q10.882 0 18.136-6.138t7.254-14.23zM406.25 159.319q-8.649-1.116-19.531-1.116-47.154 0-86.774 21.484t-62.36 58.175-22.74 80.218q0 21.763 6.417 42.411-9.766 0.837-18.973 0.837-7.254 0-13.951-0.418t-15.346-1.813-12.417-1.953-15.207-2.93-13.951-2.93l-70.591 35.435 20.089-60.826q-80.915-56.641-80.915-136.719 0-47.154 27.204-86.774t73.661-62.36 101.423-22.74q49.107 0 92.773 18.415t73.103 50.921 38.086 72.684zM571.429 315.848q0 32.645-19.113 62.36t-51.758 53.99l15.346 50.502-55.524-30.413q-41.853 10.324-60.826 10.324-47.154 0-86.774-19.671t-62.36-53.432-22.74-73.661 22.74-73.661 62.36-53.432 86.774-19.671q44.922 0 84.542 19.671t63.477 53.571 23.856 73.521z"></path>
</svg>
